HIERARCHY
ROOT SpineBase
{
  OFFSET 0.000000 0.000000 0.000000
  CHANNELS 6 Xposition Yposition Zposition Zrotation Xrotation Yrotation
  JOINT SpineMid
  {
    OFFSET -0.000000 32.014900 0.000000
    CHANNELS 3 Zrotation Xrotation Yrotation
    JOINT SpineShoulder
    {
      OFFSET 0.173640 23.723551 -0.802859
      CHANNELS 3 Zrotation Xrotation Yrotation
      JOINT Neck
      {
        OFFSET 0.133694 7.837189 -0.601273
        CHANNELS 3 Zrotation Xrotation Yrotation
        JOINT Head
        {
          OFFSET -5.907686 13.730108 -1.994877
          CHANNELS 3 Zrotation Xrotation Yrotation
          End Site
          {
            OFFSET 0 0 0
          }
        }
      }
      JOINT ShoulderLeft
      {
        OFFSET -17.237983 -7.151193 6.038394
        CHANNELS 3 Zrotation Xrotation Yrotation
        JOINT ElbowLeft
        {
          OFFSET -0.948253 -27.235683 2.000731
          CHANNELS 3 Zrotation Xrotation Yrotation
          JOINT WristLeft
          {
            OFFSET 0.816419 -22.590203 -3.491297
            CHANNELS 3 Zrotation Xrotation Yrotation
            JOINT HandLeft
            {
              OFFSET 0.118929 -7.047445 -0.376411
              CHANNELS 3 Zrotation Xrotation Yrotation
              JOINT HandTipLeft
              {
                OFFSET 1.056066 -7.419538 0.421372
                CHANNELS 3 Zrotation Xrotation Yrotation
                End Site
                {
                  OFFSET 0 0 0
                }
              }
              JOINT ThumbLeft
              {
                OFFSET -2.779956 0.595155 -2.716925
                CHANNELS 3 Zrotation Xrotation Yrotation
                End Site
                {
                  OFFSET 0 0 0
                }
              }
            }
          }
        }
      }
      JOINT ShoulderRight
      {
        OFFSET 15.755273 -3.539717 -8.696294
        CHANNELS 3 Zrotation Xrotation Yrotation
        JOINT ElbowRight
        {
          OFFSET 6.389863 -25.863037 -2.669335
          CHANNELS 3 Zrotation Xrotation Yrotation
          JOINT WristRight
          {
            OFFSET -1.451247 -24.876945 -6.155584
            CHANNELS 3 Zrotation Xrotation Yrotation
            JOINT HandRight
            {
              OFFSET -1.218211 -7.367523 -1.004978
              CHANNELS 3 Zrotation Xrotation Yrotation
              JOINT HandTipRight
              {
                OFFSET -0.570593 -6.367474 -0.201031
                CHANNELS 3 Zrotation Xrotation Yrotation
                End Site
                {
                  OFFSET 0 0 0
                }
              }
              JOINT ThumbRight
              {
                OFFSET 3.248143 -0.930285 -1.690121
                CHANNELS 3 Zrotation Xrotation Yrotation
                End Site
                {
                  OFFSET 0 0 0
                }
              }
            }
          }
        }
      }
    }
  }
  JOINT HipLeft
  {
    OFFSET -6.055739 0.084625 -1.173797
    CHANNELS 3 Zrotation Xrotation Yrotation
    JOINT KneeLeft
    {
      OFFSET 3.638057 -33.635455 5.581046
      CHANNELS 3 Zrotation Xrotation Yrotation
      JOINT AnkleLeft
      {
        OFFSET 9.186254 -36.761900 9.377395
        CHANNELS 3 Zrotation Xrotation Yrotation
        JOINT FootLeft
        {
          OFFSET -4.440547 -3.094106 -15.001367
          CHANNELS 3 Zrotation Xrotation Yrotation
          End Site
          {
            OFFSET 0 0 0
          }
        }
      }
    }
  }
  JOINT HipRight
  {
    OFFSET 7.572716 1.617032 -6.140819
    CHANNELS 3 Zrotation Xrotation Yrotation
    JOINT KneeRight
    {
      OFFSET 10.660042 -34.728560 2.881908
      CHANNELS 3 Zrotation Xrotation Yrotation
      JOINT AnkleRight
      {
        OFFSET 2.618307 -36.433627 8.959071
        CHANNELS 3 Zrotation Xrotation Yrotation
        JOINT FootRight
        {
          OFFSET -2.312369 -6.310443 -8.916286
          CHANNELS 3 Zrotation Xrotation Yrotation
          End Site
          {
            OFFSET 0 0 0
          }
        }
      }
    }
  }
}
MOTION
Frames: 13
Frame Time: 0.033333
-58.500446 70.271509 351.443881 23.352212 -42.004777 11.134171 -0.206558 0.180486 -1.016520 -0.650803 1.007062 1.262719 24.106276 -1.570013 -20.542976 0.000000 0.000000 0.000000 2.756916 -7.812610 1.583563 -34.236566 -13.535877 12.725320 -8.074416 -12.892018 0.424580 -81.119919 60.499403 96.920812 0.000000 0.000000 0.000000 0.000000 0.000000 0.000000 -1.724820 43.091346 -7.912019 -47.122762 16.518905 12.053714 -51.355089 41.854371 19.283561 30.100540 17.249017 22.517287 0.000000 0.000000 0.000000 0.000000 0.000000 0.000000 -75.774257 46.799812 42.622358 25.235122 -14.294828 5.076818 3.567127 23.139406 -6.437856 0.000000 0.000000 0.000000 -62.652479 63.896777 48.505130 22.212810 -28.997686 2.665606 -9.537441 -2.900148 -1.616058 0.000000 0.000000 0.000000
-58.926709 71.691869 350.731055 22.622661 -40.722840 15.691974 -0.310731 -0.278688 -6.074947 -0.608174 1.150202 1.194679 23.050803 0.147497 -19.702379 0.000000 0.000000 0.000000 1.827964 -8.930960 2.022591 -30.767824 -10.997063 11.089924 -13.052530 -5.571419 6.288546 -91.964377 70.165206 114.710305 0.000000 0.000000 0.000000 0.000000 0.000000 0.000000 -3.915474 43.631343 -5.824182 -49.162347 21.972193 13.923675 -42.398620 33.747442 7.819603 32.195544 19.456792 21.368367 0.000000 0.000000 0.000000 0.000000 0.000000 0.000000 -69.348632 51.146507 36.068813 23.769251 -12.683880 4.781612 3.314400 18.715625 -3.802886 0.000000 0.000000 0.000000 -54.215612 66.840339 39.097049 23.357492 -29.140515 3.270923 -3.070254 -13.919266 -8.240475 0.000000 0.000000 0.000000
-60.112716 72.490046 349.701997 20.430345 -39.349460 21.966805 0.254631 -1.016476 -13.700205 -0.469401 0.930469 1.148884 21.366385 2.385847 -18.852973 0.000000 0.000000 0.000000 2.315008 -9.625734 2.018764 -30.314915 -7.616696 11.012921 -29.413065 10.639979 21.637125 -32.667073 82.527288 72.556190 0.000000 0.000000 0.000000 0.000000 0.000000 0.000000 -10.569091 46.575731 0.079109 -39.280034 23.261715 9.997650 -31.403945 21.730443 -2.116827 29.904813 20.945896 14.740504 0.000000 0.000000 0.000000 0.000000 0.000000 0.000000 -58.405429 57.265195 25.322073 22.535506 -11.887949 4.482402 7.747268 1.685447 -4.592024 0.000000 0.000000 0.000000 -30.984145 68.910717 15.280362 23.468606 -27.224419 3.713661 -1.703546 -14.356364 -11.945079 0.000000 0.000000 0.000000
-60.914488 72.601101 348.873678 19.234087 -38.231733 25.665776 0.220337 -1.318310 -18.094162 -0.241118 0.420574 1.127761 19.673097 4.275324 -18.146806 0.000000 0.000000 0.000000 2.714536 -10.002341 1.980898 -29.773167 -5.383199 10.776318 -50.440371 37.372324 46.634514 20.836441 21.636731 6.026856 0.000000 0.000000 0.000000 0.000000 0.000000 0.000000 -16.930460 49.146712 5.818870 -26.426875 19.521301 4.367945 -22.822482 8.131147 -6.174468 21.055777 26.239995 7.703122 0.000000 0.000000 0.000000 0.000000 0.000000 0.000000 -58.602336 59.871360 23.315751 27.516511 -12.436532 6.263629 10.478788 -10.834965 -11.375153 0.000000 0.000000 0.000000 -16.379291 67.251851 -0.358125 23.299896 -25.401795 3.890916 -2.817862 -4.519029 -13.888007 0.000000 0.000000 0.000000
-61.245510 72.411187 348.426960 19.170982 -37.912023 27.555802 -0.091360 -0.759911 -19.997439 -0.269137 0.095805 1.158577 19.051144 4.820532 -17.757741 0.000000 0.000000 0.000000 3.191627 -10.465857 1.942766 -30.444142 -2.585035 11.386493 -44.883138 37.086935 40.702066 16.945036 7.943507 -0.417599 0.000000 0.000000 0.000000 0.000000 0.000000 0.000000 -18.449159 48.084006 7.095873 -18.052748 12.308128 1.559767 -17.390304 8.665061 -3.550330 12.556959 25.051263 4.301188 0.000000 0.000000 0.000000 0.000000 0.000000 0.000000 -61.363499 61.718969 24.901892 30.647254 -14.260141 7.195305 10.243013 -6.864209 -19.060886 0.000000 0.000000 0.000000 -10.054606 64.583143 -7.842801 21.614917 -22.304147 3.252526 -3.406657 24.828495 -17.869104 0.000000 0.000000 0.000000
-60.963994 72.096380 348.515078 20.464526 -38.428052 26.955688 -0.755314 0.488527 -18.604027 -0.272731 -0.186350 1.195618 17.558657 6.246880 -17.301851 0.000000 0.000000 0.000000 3.308152 -10.506254 1.917806 -32.619635 0.060177 13.011868 -27.857152 20.603676 21.249875 12.460531 18.951416 -0.647946 0.000000 0.000000 0.000000 0.000000 0.000000 0.000000 -16.367314 45.472870 4.953970 -13.072155 4.752841 0.656983 -15.141293 14.057252 -0.679370 4.841966 21.820652 2.349929 0.000000 0.000000 0.000000 0.000000 0.000000 0.000000 -76.281305 61.595963 38.256991 35.944394 -18.408638 9.021708 12.953466 -25.596412 -18.237167 0.000000 0.000000 0.000000 -12.936911 62.918157 -5.884005 19.930777 -18.718801 2.556793 -18.365144 51.610544 -3.147037 0.000000 0.000000 0.000000
-60.517766 71.887264 348.576333 21.538723 -38.355775 26.862939 -1.246435 1.218424 -17.968907 -0.288175 -0.097291 1.186456 17.092023 5.303265 -16.996534 0.000000 0.000000 0.000000 3.184414 -11.089044 2.088317 -34.756224 1.078631 14.539635 -30.418584 12.468802 19.851191 24.768977 16.615933 -6.334651 0.000000 0.000000 0.000000 0.000000 0.000000 0.000000 -12.364688 41.229895 1.070958 -14.069661 1.116572 1.837508 -15.289763 21.776166 1.410107 -0.243016 18.702078 1.825710 0.000000 0.000000 0.000000 0.000000 0.000000 0.000000 -85.246626 60.724924 45.690809 39.852040 -20.941679 10.560451 13.264490 -29.478383 -17.684884 0.000000 0.000000 0.000000 -15.276203 61.323516 -4.779800 18.805386 -15.977086 2.066378 -34.949455 62.959703 13.635581 0.000000 0.000000 0.000000
-60.132797 70.421418 348.594824 21.345483 -36.985779 22.217756 -1.235431 0.475026 -13.694875 -0.252021 0.095903 1.149875 16.763326 3.136888 -16.648638 0.000000 0.000000 0.000000 2.877361 -12.045048 2.396735 -37.076612 1.432353 16.159464 -27.605331 14.186327 18.523055 24.196696 11.535739 -7.620233 0.000000 0.000000 0.000000 0.000000 0.000000 0.000000 -6.962139 35.671982 -3.757579 -19.832375 0.821454 4.539681 -18.124859 29.073966 4.050839 -2.331522 16.196767 1.710556 0.000000 0.000000 0.000000 0.000000 0.000000 0.000000 -83.356017 54.949301 42.442556 39.443686 -19.554060 9.996392 13.489567 -26.740704 -20.345184 0.000000 0.000000 0.000000 -20.902640 58.840172 1.939935 17.204772 -16.575004 1.457165 -50.732812 66.180215 30.216664 0.000000 0.000000 0.000000
-59.551405 69.514993 347.959345 21.690030 -35.322577 19.637251 -1.339158 -0.147450 -11.277677 -0.330280 0.503088 1.112735 16.309048 0.280839 -16.094444 0.000000 0.000000 0.000000 2.467771 -13.467262 2.836508 -39.625482 0.989045 17.869255 -9.977314 32.294243 12.987043 7.965233 -3.393240 -6.543007 0.000000 0.000000 0.000000 0.000000 0.000000 0.000000 -2.335297 31.067850 -7.392135 -31.679599 1.712713 8.579211 -15.910839 36.147302 5.387179 -8.688990 20.370664 2.711819 0.000000 0.000000 0.000000 0.000000 0.000000 0.000000 -78.695144 50.776322 36.529591 36.922577 -16.821170 8.626786 12.921167 -13.895936 -23.824160 0.000000 0.000000 0.000000 -25.063906 55.679159 5.472962 16.886812 -16.021683 1.296630 -47.267080 64.490191 27.573115 0.000000 0.000000 0.000000
-59.138328 69.434421 347.992620 22.277779 -35.037130 17.506832 -1.159155 0.076857 -9.086688 -0.415111 1.083941 1.052771 16.397726 -2.425889 -15.751671 0.000000 0.000000 0.000000 1.969061 -14.548121 3.215835 -42.292789 0.277002 19.626787 1.285798 30.141897 5.274052 4.156386 -1.551903 -5.580269 0.000000 0.000000 0.000000 0.000000 0.000000 0.000000 -1.195179 28.495296 -8.413597 -43.547059 2.671387 12.769820 -16.125752 46.186028 9.723346 -4.927370 13.705850 1.988121 0.000000 0.000000 0.000000 0.000000 0.000000 0.000000 -76.484021 47.976494 34.461778 33.663128 -14.888315 7.350919 13.912128 -11.462164 -22.223690 0.000000 0.000000 0.000000 -29.988564 54.813174 10.308455 18.082925 -16.527655 1.674948 -34.801664 58.163184 15.387501 0.000000 0.000000 0.000000
-59.049388 70.068607 348.370874 22.611359 -35.566138 14.271335 -0.770274 0.522006 -5.804701 -0.446436 1.709494 0.968343 17.010060 -4.637338 -15.632840 0.000000 0.000000 0.000000 1.514056 -15.149852 3.469236 -44.210220 -0.234430 20.885457 13.822838 35.916388 -1.344674 -2.572816 -6.524296 -5.337702 0.000000 0.000000 0.000000 0.000000 0.000000 0.000000 -2.733165 28.920233 -7.497281 -51.998769 3.670580 15.257644 -25.036962 48.099602 17.681209 6.657311 9.100288 5.262688 0.000000 0.000000 0.000000 0.000000 0.000000 0.000000 -75.228308 45.114177 34.641320 30.432490 -13.875974 6.237399 16.037173 -20.232337 -16.180839 0.000000 0.000000 0.000000 -35.115135 54.496564 16.673106 18.504180 -17.376638 1.822533 -22.988638 43.389263 4.860334 0.000000 0.000000 0.000000
-59.404599 70.191594 348.286737 22.134651 -35.290459 18.437868 -0.295267 0.228391 -10.304290 -0.433779 1.997124 0.916773 18.123194 -6.121474 -15.625822 0.000000 0.000000 0.000000 1.375209 -15.497160 3.581778 -44.769320 -1.790246 21.071105 24.544295 40.641867 -7.765122 -6.687080 -11.719766 -5.734876 0.000000 0.000000 0.000000 0.000000 0.000000 0.000000 -6.843372 31.261467 -4.649294 -54.913206 5.077388 15.704682 -26.148250 43.689383 17.367095 12.336694 5.382750 5.730939 0.000000 0.000000 0.000000 0.000000 0.000000 0.000000 -70.686500 49.211708 30.422361 28.652530 -12.295494 5.901042 15.850108 -20.185724 -11.449781 0.000000 0.000000 0.000000 -26.551152 54.295244 6.918728 18.034363 -13.558525 2.043390 -26.050411 44.184105 6.988875 0.000000 0.000000 0.000000
-60.317006 69.740132 347.989069 21.328333 -34.875125 23.614843 0.132417 -0.057780 -15.964230 -0.429936 1.910654 0.923413 19.098412 -7.398153 -15.673228 0.000000 0.000000 0.000000 1.497513 -15.730878 3.603480 -43.979267 -3.720979 20.287293 29.428848 44.144818 -11.257586 -8.960748 -16.165174 -6.627441 0.000000 0.000000 0.000000 0.000000 0.000000 0.000000 -14.007688 35.052269 0.673477 -47.160013 5.219420 11.944628 -22.542604 38.295460 12.193342 13.033547 9.111178 6.373989 0.000000 0.000000 0.000000 0.000000 0.000000 0.000000 -62.069636 53.821611 22.358139 26.624027 -10.288220 5.589822 14.253517 -18.850430 -4.820684 0.000000 0.000000 0.000000 -15.088891 54.453998 -5.271701 16.786491 -12.533984 2.058022 -26.862912 42.573929 7.456182 0.000000 0.000000 0.000000
